<svg width="24" height="20" viewBox="0 0 24 20" fill="none" xmlns="http://www.w3.org/2000/svg">
<path d="M24 10.0001C24 10.2653 23.8946 10.5196 23.7071 10.7072C23.5196 10.8947 23.2652 11.0001 23 11.0001H3.41374L10.7075 18.2926C10.8004 18.3855 10.8741 18.4958 10.9244 18.6172C10.9747 18.7386 11.0005 18.8687 11.0005 19.0001C11.0005 19.1315 10.9747 19.2616 10.9244 19.383C10.8741 19.5044 10.8004 19.6147 10.7075 19.7076C10.6146 19.8005 10.5043 19.8742 10.3829 19.9245C10.2615 19.9747 10.1314 20.0006 9.99999 20.0006C9.8686 20.0006 9.73849 19.9747 9.6171 19.9245C9.4957 19.8742 9.3854 19.8005 9.29249 19.7076L0.292493 10.7076C0.199517 10.6147 0.125758 10.5044 0.0754335 10.383C0.0251092 10.2616 -0.000793457 10.1315 -0.000793457 10.0001C-0.000793457 9.86865 0.0251092 9.73853 0.0754335 9.61713C0.125758 9.49573 0.199517 9.38544 0.292493 9.29257L9.29249 0.292568C9.48013 0.104927 9.73463 -0.000488283 9.99999 -0.000488281C10.2654 -0.000488279 10.5199 0.104927 10.7075 0.292568C10.8951 0.480208 11.0005 0.734704 11.0005 1.00007C11.0005 1.26543 10.8951 1.51993 10.7075 1.70757L3.41374 9.00007H23C23.2652 9.00007 23.5196 9.10542 23.7071 9.29296C23.8946 9.4805 24 9.73485 24 10.0001Z" fill="white"/>
</svg>
